<svg width="306" height="197" xmlns="http://www.w3.org/2000/svg"><defs><filter x="-4%" y="-6.3%" width="108.1%" height="112.7%" filterUnits="objectBoundingBox" id="a"><feOffset dy="2" in="SourceAlpha" result="shadowOffsetOuter1"/><feGaussianBlur stdDeviation="2" in="shadowOffsetOuter1" result="shadowBlurOuter1"/><feColorMatrix values="0 0 0 0 0 0 0 0 0 0 0 0 0 0 0 0 0 0 0.5 0" in="shadowBlurOuter1" result="shadowMatrixOuter1"/><feMerge><feMergeNode in="shadowMatrixOuter1"/><feMergeNode in="SourceGraphic"/></feMerge></filter></defs><g filter="url(#a)" transform="translate(4 2)" fill="#FFF" fill-rule="evenodd"><path d="M25.127 19.07h.246a73.176 73.176 0 0014.787-9.048v-.244h-.246c-6.73.253-10.095.748-10.095 1.486l-4.692 7.807zM38.687 1c5.692 0 9.64 2.034 11.84 6.105L52 13.21c0 2.52-7.148 7.32-21.443 14.397-7.422 3.152-11.287 5.105-11.596 5.862-1.145 2.107-1.883 3.16-2.21 3.16-.818.648-1.554 1.62-2.21 2.918h-.491v.242l-.245-.242h-.246c-.346 0-.836 1.062-1.473 3.187h-.492l.246.243v.243c-.509 0-1.746 1.955-3.71 5.862C7.638 51.026 6.656 52 5.184 52v-.487h-.246l-.982.244-.274-.244h-.244l-.738.244-.49-.487-.492.487L0 49.812v-.487c0-1.62 2.055-6.662 6.166-15.126l-.738-.244.246-.243v-.243l-1.228-1-1.008.243-.492-.729.246-.243v-.244c-.982 0-1.474-.242-1.474-.729 2.019-1.583 5.22-3.457 9.604-5.618l4.938-9.995h-.245c-1.965 0-3.857-1.873-5.675-5.62V7.348c1.346-1.692 4.802-3.07 10.367-4.133C23.89 2.55 29.883 1.81 38.687 1zM63.828 1h1.18c2.489 0 4.52 1.346 6.096 4.037l.215.954c0 1.327-1.719 5.3-5.155 11.917-3.598 7.183-5.397 13.766-5.397 19.746v.71c4.045-2.673 7.33-5.927 9.853-9.764 5.943-7.69 9.46-13.246 10.552-16.664l1.397-3.082c.465 0 .698-.236.698-.709l.241-.246h.484v.955h.214c.43-2.69.824-4.036 1.183-4.036h.24v.955h.216v-1.91h.482v.71c.556-.29 1.253-1.481 2.095-3.573h.241C90.221 2.473 91 4.773 91 7.9c0 10.472-6.633 22.373-19.896 35.7-2.542 1.598-5.433 2.4-8.673 2.4-5.996 0-9.987-2.227-11.975-6.683L50 36.455v-1.173c0-6.255 1.254-11.81 3.76-16.664l6.094-14.536C61.179 2.028 62.503 1 63.828 1M109.59 18.584h.486c9.397-4.032 15.102-7.246 17.116-9.643v-.242l-4.691-.217h-.458c-5.948 0-8.92.702-8.92 2.107-1.853 4.737-3.03 7.4-3.532 7.995M117.11 0h2.103c10.474 0 16.657 3.45 18.543 10.346l.243 1.431v.703c0 2.072-4.699 5.52-14.097 10.344 2.354 9.995 3.531 16.974 3.531 20.934l.242.244v.216l-.242.728.242 2.108-.242.243h-.458c0-.63-.163-.945-.485-.945 0 .468-.154.702-.459.702h-.484l-.217-.243h-.243c-.233.63-.466.946-.7.946l-1.186-.244-.458.487c-.108-.794-.503-1.19-1.186-1.19-2.498-5.834-4.68-12.577-6.55-20.23l-10.565 3.538c-.971 2.214-1.753 3.467-2.346 3.755l-.241 1.188h-.702l.943-2.593v-.243h-.241l-1.187 2.593.485.486c-.593 0-1.77 1.64-3.531 4.917-.215.018-.683 1.043-1.402 3.078-.323 0-1.104 1.567-2.345 4.701h-.243c0-.72-.78-1.351-2.344-1.892l-.459.487c0-.324-.242-.487-.727-.487l-.7.244c-.342-.847-.81-1.314-1.403-1.406v-.728c0-3.8 4.304-14.307 12.912-31.522-3.289-2.232-4.933-4.033-4.933-5.402V6.132c.126-.828 3.018-2.242 8.68-4.24C105.448.632 109.598 0 117.11 0"/><path d="M134.025 44.972h.513v-.244h-.513v.244zM178.975 0h.513c.757 0 1.764.587 3.025 1.757l.244.244H183l-.243.999.243 3.028c-.271 2.684-1.19 4.026-2.755 4.026h-1.513c-6.556 0-14.76 2.263-24.61 6.783v.488h.243c12.172 1.008 18.872 2.684 20.099 5.027 1.17.685 1.755 1.864 1.755 3.54-.451 5.514-1.118 8.27-1.999 8.27-3.78 2.83-7.969 5.09-12.56 6.783-6.9 2.36-16.362 5.045-28.392 8.055l-.243-.244v-.27l1.756-.73v-.513l-2.755.513v-.27c0-.379.415-.63 1.242-.757v-.487h-.756v-.513h.513v-.242l-1.512-.515.243-.242v-.757c-.666 0-1-.253-1-.757l-.243.243H130v-.243l.243-.244v-.243h-.486c0-.342-.252-.514-.757-.514v-.243c0-.846 6.781-3.197 20.34-7.053 9.006-3.116 14.199-5.207 15.588-6.27-14.246-.937-21.367-2.45-21.367-4.541-1.675-1.081-2.513-2.665-2.513-4.756 0-1.928 1.01-4.189 3.026-6.783C156.319 4.19 167.954 0 178.975 0zM195.828 1h1.18c2.488 0 4.52 1.346 6.096 4.037l.215.954c0 1.327-1.719 5.3-5.155 11.917-3.598 7.183-5.397 13.766-5.397 19.746v.71c4.044-2.673 7.33-5.927 9.853-9.764 5.943-7.69 9.46-13.246 10.552-16.664l1.397-3.082c.465 0 .698-.236.698-.709l.241-.246h.484v.955h.214c.43-2.69.822-4.036 1.183-4.036h.24v.955h.216v-1.91h.482v.71c.554-.29 1.251-1.481 2.095-3.573h.241C222.221 2.473 223 4.773 223 7.9c0 10.472-6.633 22.373-19.896 35.7-2.543 1.598-5.434 2.4-8.673 2.4-5.997 0-9.987-2.227-11.975-6.683L182 36.455v-1.173c0-6.255 1.252-11.81 3.76-16.664l6.094-14.536C193.178 2.028 194.5 1 195.828 1M232.588 35.765h.219v-.405h-.22v.405zM237.433 3h1.505c3.027 0 5.382 1.325 7.062 3.972v.998c0 .47-1.598 3.288-4.79 8.456L230.124 39.06c-1.442 2.61-2.455 4.104-3.038 4.483l-.247-.27h-.245l-.52 1.243h-.494l.494-1.73-2.765 4.484h-.247l-.247-.243v-.27l.247-.243v-.485h-.247l-1.011 2.241h-.52v-.27l.52-1.243L217.752 50l-.739-.487.246-.27v-.728l-.766.485-.493-.485c0-2.18 6.049-16.36 18.148-42.543.728-1.98 1.823-2.972 3.285-2.972zM284.022 0l4.82.241h4.821c.933 0 1.616.428 2.048 1.284l-.27.242c.844.053 1.266.304 1.266.75v.266h-2.775v.242h.997v.508h-.484l.242.267-.242.241v.509l1.266.241v.267l-.27.242v.267c1.023 0 1.536.67 1.536 2.008.681.09 1.023.34 1.023.75v.508l-15.001 1.766c-1.277 0-2.289 1.598-3.043 4.791-8.942 17.31-14.286 28.337-16.024 33.085-1.025 1.017-1.87 1.525-2.532 1.525l-1.023-1.017c-1.008 0-1.509-.418-1.509-1.258l-.269.269h-.242c-.039-.43-.881-1.189-2.532-2.277l-.782-1.284c0-3.39 4.068-12.393 12.2-27.008l2.047-4.79-9.426 1.499c-3.555 0-5.924-1.598-7.11-4.793L252 6.316v-.508c0-1.07.674-2.078 2.02-3.025h3.314c5.312 0 14.208-.927 26.688-2.783M126.407 72c0 .27.598.612 1.796 1.025 0 .63.419 1.053 1.26 1.268v.27l-.242.243v.27c.66 0 .99.172.99.513l-.24.242c.805 0 1.813.856 3.029 2.564 0 .684-8.622 1.87-25.861 3.561-1.715 0-2.814 1.358-3.296 4.074-.215 0-.716 1.278-1.501 3.832h.241l6.592-.486c.768 1.008 1.358 1.511 1.769 1.511v1.295l.51.755v.243h-.75v.27h.24l1.528-.27 1.527.513v.27l-.267.242v.271c1.018.216 1.527.467 1.527.755-2.036 1.638-7.951 3.427-17.741 5.37-5.593 10.99-8.887 17.204-9.889 18.643-1.357 0-2.036.253-2.036.756h-.242l-.776-.513.267-.243v-1.025h-.509c0 .503-.17.756-.509.756-.178-.845-.608-1.268-1.287-1.268v.243c-.107.863-.356 1.294-.75 1.294l-.24-.269h-.27l-.508.512-1.018-1.268c-.5 0-.751-.26-.751-.782 0-3.058 2.617-9.695 7.852-19.912 5.073-10.217 7.611-17.276 7.611-21.18 1.34-2.393 2.607-3.59 3.805-3.59l4.074 1.026C111.435 72.594 119.457 72 126.407 72M135.646 99.862v.24c0 2.828 1.824 4.456 5.473 4.882h2.086c5.618 0 10.83-3.174 15.635-9.523.739-1.67 1.254-3.876 1.544-6.615-.163-2.275-.417-3.663-.76-4.161l.245-.721c-.47-2.455-.813-3.681-1.03-3.681-5.112.676-11.019 3.94-17.72 9.79-3.649 3.486-5.473 6.748-5.473 9.79M161.169 71h.272c1.714 0 3.449 1.628 5.202 4.881l.27.268v1.2c0 .765-1.3 1.423-3.9 1.974v.24c3.99 4.873 5.987 9.435 5.987 13.684v1.227c0 10.529-4.606 17.295-13.819 20.3-3.143.818-5.744 1.226-7.803 1.226h-2.872c-8.092 0-13.918-4.071-17.477-12.217-.505-.106-.849-1.573-1.029-4.401v-1.734c0-7.895 5.815-15.061 17.45-21.5C150.801 72.718 156.708 71 161.168 71M191.59 88.584h.486c9.398-4.032 15.103-7.246 17.116-9.643v-.242l-4.691-.217h-.458c-5.947 0-8.92.702-8.92 2.107-1.851 4.737-3.029 7.4-3.532 7.995M199.11 70h2.103c10.475 0 16.657 3.45 18.543 10.346l.243 1.431v.703c0 2.072-4.698 5.52-14.097 10.344 2.354 9.995 3.531 16.974 3.531 20.934l.242.244v.216l-.242.728.242 2.108-.242.243h-.458c0-.63-.163-.945-.485-.945 0 .468-.152.702-.459.702h-.484l-.217-.243h-.243c-.231.63-.465.946-.7.946l-1.186-.244-.458.487c-.108-.794-.503-1.19-1.186-1.19-2.498-5.834-4.68-12.577-6.55-20.23l-10.565 3.538c-.971 2.214-1.753 3.467-2.346 3.755l-.241 1.188h-.702l.943-2.593v-.243h-.241l-1.187 2.593.485.486c-.593 0-1.77 1.64-3.531 4.917-.215.018-.682 1.043-1.402 3.078-.323 0-1.104 1.567-2.345 4.701h-.243c0-.72-.78-1.351-2.344-1.892l-.459.487c0-.324-.242-.487-.727-.487l-.7.244c-.34-.847-.81-1.314-1.403-1.406v-.728c0-3.8 4.306-14.307 12.912-31.522-3.289-2.232-4.933-4.033-4.933-5.402v-1.162c.127-.828 3.018-2.242 8.68-4.24.79-1.26 4.941-1.892 12.451-1.892M68.022 139l4.82.241h4.821c.934 0 1.616.428 2.048 1.284l-.27.242c.844.053 1.266.304 1.266.75v.266h-2.775v.242h.997v.508h-.484l.242.267-.242.241v.509l1.266.241v.267l-.27.242v.267c1.023 0 1.536.67 1.536 2.008.681.09 1.023.338 1.023.75v.508l-15.001 1.766c-1.275 0-2.289 1.597-3.043 4.791-8.942 17.31-14.284 28.337-16.024 33.085C46.907 188.492 46.063 189 45.4 189l-1.023-1.017c-1.007 0-1.509-.418-1.509-1.258l-.269.269h-.242c-.038-.43-.88-1.189-2.532-2.277l-.782-1.284c0-3.39 4.068-12.393 12.2-27.008l2.047-4.79-9.426 1.499c-3.555 0-5.924-1.598-7.11-4.793L36 145.316v-.508c0-1.07.674-2.078 2.02-3.025h3.314c5.312 0 14.21-.927 26.688-2.783M96.59 157.584h.486c9.397-4.034 15.102-7.248 17.116-9.643v-.242l-4.691-.217h-.458c-5.948 0-8.92.702-8.92 2.107-1.853 4.737-3.03 7.4-3.532 7.995M104.11 139h2.103c10.474 0 16.657 3.45 18.543 10.346l.243 1.431v.703c0 2.07-4.699 5.52-14.097 10.344 2.353 9.995 3.531 16.974 3.531 20.934l.242.244v.216l-.242.728.242 2.108-.242.243h-.458c0-.63-.163-.945-.485-.945 0 .468-.154.702-.459.702h-.484l-.217-.243h-.243c-.233.63-.466.946-.7.946l-1.186-.244-.458.487c-.108-.794-.504-1.19-1.186-1.19-2.499-5.834-4.682-12.577-6.55-20.23l-10.565 3.538c-.971 2.214-1.753 3.467-2.346 3.755l-.241 1.188h-.702l.943-2.593v-.243h-.241l-1.187 2.593.485.486c-.593 0-1.77 1.638-3.531 4.917-.215.016-.683 1.043-1.402 3.078-.323 0-1.104 1.567-2.345 4.701h-.243c0-.72-.78-1.351-2.344-1.892l-.459.487c0-.324-.242-.487-.727-.487l-.7.244c-.342-.847-.81-1.314-1.403-1.406v-.728c0-3.8 4.304-14.307 12.912-31.522-3.289-2.232-4.933-4.034-4.933-5.402v-1.162c.126-.828 3.018-2.242 8.68-4.24.789-1.26 4.94-1.892 12.451-1.892M133.588 174.765h.219v-.405h-.22v.405zM138.433 142h1.504c3.028 0 5.384 1.324 7.063 3.97v1c0 .468-1.598 3.285-4.792 8.455l-11.084 22.635c-1.443 2.61-2.455 4.107-3.038 4.484l-.247-.27h-.247l-.52 1.242h-.492l.492-1.728-2.763 4.483h-.247l-.247-.243v-.27l.247-.243v-.486h-.247l-1.013 2.242h-.52v-.27l.52-1.243-4.05 3.242-.74-.487.247-.27v-.728l-.767.485-.492-.485c0-2.179 6.049-16.36 18.148-42.544.728-1.982 1.824-2.971 3.285-2.971zM196.196 140l.511 1.294h.269l.242-.27h.27l.242.27-.243.243v.27l.513.512c0 .646-3.428 5.014-10.284 13.105-9.494 12.259-15.739 21.085-18.737 26.479-.734 2.732-1.93 4.097-3.58 4.097h-1.023c-2.907 0-5.392-1.104-7.457-3.316l.512-2.32-5.384-28.284-2.047-9.52v-.24c.861-1.367 1.886-2.05 3.07-2.05 2.28 0 4.504.852 6.676 2.562 1.723 1.24 2.584 3.467 2.584 6.687.215.054 1.238 6.218 3.069 18.497h.27l6.137-7.955c1.687-1.42 2.63-2.625 2.826-3.613h.27l.243.27h.268l2.316-2.319.241.242v-.242l-.241-.783.753-.512h.27l.242 1.295.512-.512-.243-1.026h.243l-.243-.781c.467-1.132.979-1.816 1.534-2.049h.269l.243.242h.27l.511-.512v.512l-.27.27v.242h.27l2.826-3.585h.242v.243l-1.803 2.318v1.537l2.826-3.074.27.27h.241v-.513h.27l-.51-1.294.24-.27h.27l.243.27h.269l2.557-2.05.27.243v.27l-1.293 1.267v.27h.511c3.788-4.405 6.014-6.633 6.677-6.687M199.588 174.765h.219v-.405h-.22v.405zM204.433 142h1.505c3.03 0 5.384 1.324 7.062 3.97v1c0 .468-1.596 3.285-4.79 8.455l-11.086 22.635c-1.442 2.61-2.454 4.107-3.038 4.484l-.247-.27h-.247l-.52 1.242h-.492l.492-1.728-2.765 4.483h-.245l-.247-.243v-.27l.247-.243v-.486h-.247l-1.013 2.242h-.52v-.27l.52-1.243-4.05 3.242-.74-.487.247-.27v-.728l-.767.485-.492-.485c0-2.179 6.049-16.36 18.148-42.544.73-1.982 1.826-2.971 3.285-2.971zM251.804 161.097h.459v-.217h-.459v.217zm-.243-1.358h.458v-.461h-.458v.461zm-21.092 3.422v.217c2.571-.67 3.857-1.123 3.857-1.358l-.675-3.665c-.413.18-1.474 1.782-3.182 4.806zM232.275 141c4.335 0 6.987 1.295 7.958 3.884.558 2.298 1.231 6.862 2.023 13.687l.243.245c.09 1.068.315 1.602.674 1.602l7.256-.923v.461h.243l3.614-.217v.434l-1.593.462v.245h1.593l1.59-.245v.462c-1.545.616-2.75.923-3.613.923v.461l1.132-.243c1.044.307 1.565.615 1.565.923l1.16-.244c3.02.09 4.53.397 4.53.923l-.242.217 1.592.462v.461c-2.05 1.07-6.285 1.983-12.705 2.744l-4.073.678c1.961 7.75 2.94 13.01 2.94 15.78v.895l-.674.706h-.243c-.502 0-1.024-.235-1.564-.706v.706h-.459v-.462l-.701.462-.89-.706-2.266.923-1.834-1.819c-.755-1.232-1.888-5.73-3.399-13.497h-.215c-9.529 2.643-14.296 4.708-14.296 6.192-.61.38-2.427 2.733-5.448 7.06-1.043 1.232-1.878 1.847-2.508 1.847l-.459-1.14-.216.217h-.216c-.917-.542-1.375-1.15-1.375-1.819l-.216.217h-.458v-.462c-.629 0-1.232-.452-1.808-1.358-.61 0-.917-.153-.917-.462v-1.602c0-1.702 1.816-4.517 5.448-8.445 1.547-2.59 4.046-6.175 7.499-10.756l7.714-13.688 1.565-4.588c.81-.598 1.493-.897 2.05-.897z"/></g></svg>